<mxfile host="app.diagrams.net" modified="2023-11-27T16:12:37.570Z" agent="Mozilla/5.0 (X11; Linux x86_64; rv:109.0) Gecko/20100101 Firefox/115.0" etag="5VhYyP56r6WStccfFSAq" version="22.1.4" type="device">
  <diagram name="Page-1" id="qjNL9SGPya7VAOumGqd9">
    <mxGraphModel dx="1434" dy="764" grid="1" gridSize="10" guides="1" tooltips="1" connect="1" arrows="1" fold="1" page="1" pageScale="1" pageWidth="850" pageHeight="1100" math="0" shadow="0">
      <root>
        <mxCell id="0" />
        <mxCell id="1" parent="0" />
        <mxCell id="MKNZsfHyS8Gho2xqNHfB-3" style="edgeStyle=orthogonalEdgeStyle;rounded=0;orthogonalLoop=1;jettySize=auto;html=1;entryX=0.5;entryY=0;entryDx=0;entryDy=0;" parent="1" source="MKNZsfHyS8Gho2xqNHfB-1" target="MKNZsfHyS8Gho2xqNHfB-2" edge="1">
          <mxGeometry relative="1" as="geometry" />
        </mxCell>
        <mxCell id="MKNZsfHyS8Gho2xqNHfB-1" value="main.c" style="strokeWidth=2;html=1;shape=mxgraph.flowchart.start_1;whiteSpace=wrap;" parent="1" vertex="1">
          <mxGeometry x="375" y="100" width="100" height="40" as="geometry" />
        </mxCell>
        <mxCell id="i1Ulxm7sHM_5GLAVGgs3-2" value="" style="edgeStyle=orthogonalEdgeStyle;rounded=0;orthogonalLoop=1;jettySize=auto;html=1;" edge="1" parent="1" source="MKNZsfHyS8Gho2xqNHfB-2" target="MKNZsfHyS8Gho2xqNHfB-4">
          <mxGeometry relative="1" as="geometry" />
        </mxCell>
        <mxCell id="MKNZsfHyS8Gho2xqNHfB-2" value="&lt;div&gt;&lt;b&gt;Initialisiere Hardware&lt;/b&gt;&lt;/div&gt;&lt;div&gt;initLCD(), initClock(),&lt;/div&gt;&lt;div&gt;initThermo(), initTicker()&lt;br&gt;&lt;/div&gt;" style="rounded=0;whiteSpace=wrap;html=1;strokeWidth=2;" parent="1" vertex="1">
          <mxGeometry x="345" y="180" width="160" height="60" as="geometry" />
        </mxCell>
        <mxCell id="MKNZsfHyS8Gho2xqNHfB-53" value="" style="edgeStyle=orthogonalEdgeStyle;rounded=0;orthogonalLoop=1;jettySize=auto;html=1;" parent="1" source="MKNZsfHyS8Gho2xqNHfB-4" target="MKNZsfHyS8Gho2xqNHfB-7" edge="1">
          <mxGeometry relative="1" as="geometry" />
        </mxCell>
        <mxCell id="MKNZsfHyS8Gho2xqNHfB-54" value="ja" style="edgeLabel;html=1;align=center;verticalAlign=middle;resizable=0;points=[];" parent="MKNZsfHyS8Gho2xqNHfB-53" vertex="1" connectable="0">
          <mxGeometry x="-0.2424" y="3" relative="1" as="geometry">
            <mxPoint y="-12" as="offset" />
          </mxGeometry>
        </mxCell>
        <mxCell id="MKNZsfHyS8Gho2xqNHfB-66" style="edgeStyle=orthogonalEdgeStyle;rounded=0;orthogonalLoop=1;jettySize=auto;html=1;entryX=0.75;entryY=0.967;entryDx=0;entryDy=0;entryPerimeter=0;" parent="1" source="MKNZsfHyS8Gho2xqNHfB-4" target="MKNZsfHyS8Gho2xqNHfB-67" edge="1">
          <mxGeometry relative="1" as="geometry">
            <mxPoint x="380" y="420" as="targetPoint" />
            <Array as="points">
              <mxPoint x="425" y="390" />
            </Array>
          </mxGeometry>
        </mxCell>
        <mxCell id="MKNZsfHyS8Gho2xqNHfB-70" value="nein" style="edgeLabel;html=1;align=center;verticalAlign=middle;resizable=0;points=[];" parent="MKNZsfHyS8Gho2xqNHfB-66" vertex="1" connectable="0">
          <mxGeometry x="-0.8514" relative="1" as="geometry">
            <mxPoint x="25" y="-2" as="offset" />
          </mxGeometry>
        </mxCell>
        <mxCell id="MKNZsfHyS8Gho2xqNHfB-4" value="&lt;div&gt;clockEvent&lt;/div&gt;&lt;div&gt;== 1?&lt;/div&gt;" style="strokeWidth=2;html=1;shape=mxgraph.flowchart.decision;whiteSpace=wrap;" parent="1" vertex="1">
          <mxGeometry x="345" y="270" width="160" height="60" as="geometry" />
        </mxCell>
        <mxCell id="MKNZsfHyS8Gho2xqNHfB-56" style="edgeStyle=orthogonalEdgeStyle;rounded=0;orthogonalLoop=1;jettySize=auto;html=1;" parent="1" source="MKNZsfHyS8Gho2xqNHfB-7" target="MKNZsfHyS8Gho2xqNHfB-10" edge="1">
          <mxGeometry relative="1" as="geometry" />
        </mxCell>
        <mxCell id="MKNZsfHyS8Gho2xqNHfB-7" value="clockEvent = 0;" style="rounded=0;whiteSpace=wrap;html=1;strokeWidth=2;" parent="1" vertex="1">
          <mxGeometry x="560" y="285" width="160" height="30" as="geometry" />
        </mxCell>
        <mxCell id="MKNZsfHyS8Gho2xqNHfB-14" value="" style="edgeStyle=orthogonalEdgeStyle;rounded=0;orthogonalLoop=1;jettySize=auto;html=1;" parent="1" source="MKNZsfHyS8Gho2xqNHfB-10" target="MKNZsfHyS8Gho2xqNHfB-13" edge="1">
          <mxGeometry relative="1" as="geometry" />
        </mxCell>
        <mxCell id="MKNZsfHyS8Gho2xqNHfB-10" value="&lt;div&gt;&lt;b&gt;Uhr Funktion&lt;/b&gt;&lt;/div&gt;&lt;div&gt;tickClock()&lt;/div&gt;" style="rounded=0;whiteSpace=wrap;html=1;strokeWidth=2;" parent="1" vertex="1">
          <mxGeometry x="560" y="350" width="160" height="40" as="geometry" />
        </mxCell>
        <mxCell id="MKNZsfHyS8Gho2xqNHfB-16" value="" style="edgeStyle=orthogonalEdgeStyle;rounded=0;orthogonalLoop=1;jettySize=auto;html=1;" parent="1" source="MKNZsfHyS8Gho2xqNHfB-13" target="MKNZsfHyS8Gho2xqNHfB-15" edge="1">
          <mxGeometry relative="1" as="geometry" />
        </mxCell>
        <mxCell id="MKNZsfHyS8Gho2xqNHfB-13" value="&lt;div&gt;&lt;b&gt;Thermometer Funktion&lt;/b&gt;&lt;/div&gt;&lt;div&gt;updateThermo()&lt;br&gt;&lt;/div&gt;" style="whiteSpace=wrap;html=1;rounded=0;strokeWidth=2;" parent="1" vertex="1">
          <mxGeometry x="560" y="420" width="160" height="40" as="geometry" />
        </mxCell>
        <mxCell id="MKNZsfHyS8Gho2xqNHfB-19" value="" style="edgeStyle=orthogonalEdgeStyle;rounded=0;orthogonalLoop=1;jettySize=auto;html=1;" parent="1" source="MKNZsfHyS8Gho2xqNHfB-15" target="MKNZsfHyS8Gho2xqNHfB-18" edge="1">
          <mxGeometry relative="1" as="geometry" />
        </mxCell>
        <mxCell id="MKNZsfHyS8Gho2xqNHfB-25" value="ja" style="edgeLabel;html=1;align=center;verticalAlign=middle;resizable=0;points=[];" parent="MKNZsfHyS8Gho2xqNHfB-19" vertex="1" connectable="0">
          <mxGeometry x="-0.4583" y="1" relative="1" as="geometry">
            <mxPoint x="-9" y="-11" as="offset" />
          </mxGeometry>
        </mxCell>
        <mxCell id="MKNZsfHyS8Gho2xqNHfB-23" value="" style="edgeStyle=orthogonalEdgeStyle;rounded=0;orthogonalLoop=1;jettySize=auto;html=1;" parent="1" source="MKNZsfHyS8Gho2xqNHfB-15" target="MKNZsfHyS8Gho2xqNHfB-22" edge="1">
          <mxGeometry relative="1" as="geometry" />
        </mxCell>
        <mxCell id="MKNZsfHyS8Gho2xqNHfB-24" value="nein" style="edgeLabel;html=1;align=center;verticalAlign=middle;resizable=0;points=[];" parent="MKNZsfHyS8Gho2xqNHfB-23" vertex="1" connectable="0">
          <mxGeometry x="0.2733" y="4" relative="1" as="geometry">
            <mxPoint x="16" as="offset" />
          </mxGeometry>
        </mxCell>
        <mxCell id="MKNZsfHyS8Gho2xqNHfB-15" value="count == 19?" style="strokeWidth=2;html=1;shape=mxgraph.flowchart.decision;whiteSpace=wrap;" parent="1" vertex="1">
          <mxGeometry x="560" y="490" width="160" height="60" as="geometry" />
        </mxCell>
        <mxCell id="MKNZsfHyS8Gho2xqNHfB-21" value="" style="edgeStyle=orthogonalEdgeStyle;rounded=0;orthogonalLoop=1;jettySize=auto;html=1;" parent="1" source="MKNZsfHyS8Gho2xqNHfB-18" target="MKNZsfHyS8Gho2xqNHfB-20" edge="1">
          <mxGeometry relative="1" as="geometry" />
        </mxCell>
        <mxCell id="MKNZsfHyS8Gho2xqNHfB-18" value="&lt;div&gt;&lt;b&gt;Ausgabe der Namen&lt;br&gt;&lt;/b&gt;&lt;/div&gt;&lt;div&gt;writeLine_Wrapper(&quot;F.Fink T.Mencin &quot;, 0);&lt;br&gt;&lt;/div&gt;" style="whiteSpace=wrap;html=1;strokeWidth=2;" parent="1" vertex="1">
          <mxGeometry x="270" y="500" width="240" height="40" as="geometry" />
        </mxCell>
        <mxCell id="MKNZsfHyS8Gho2xqNHfB-20" value="count = 0;" style="whiteSpace=wrap;html=1;strokeWidth=2;" parent="1" vertex="1">
          <mxGeometry x="310" y="580" width="160" height="30" as="geometry" />
        </mxCell>
        <mxCell id="MKNZsfHyS8Gho2xqNHfB-37" value="" style="edgeStyle=orthogonalEdgeStyle;rounded=0;orthogonalLoop=1;jettySize=auto;html=1;" parent="1" source="MKNZsfHyS8Gho2xqNHfB-22" target="MKNZsfHyS8Gho2xqNHfB-36" edge="1">
          <mxGeometry relative="1" as="geometry" />
        </mxCell>
        <mxCell id="MKNZsfHyS8Gho2xqNHfB-22" value="count++;" style="whiteSpace=wrap;html=1;strokeWidth=2;" parent="1" vertex="1">
          <mxGeometry x="560" y="580" width="160" height="30" as="geometry" />
        </mxCell>
        <mxCell id="MKNZsfHyS8Gho2xqNHfB-31" value="&lt;b&gt;Ausgabe von Zeit und Temperatur&lt;/b&gt;&lt;br&gt;writeLine_Wrapper(outputString, 1);" style="whiteSpace=wrap;html=1;strokeWidth=2;" parent="1" vertex="1">
          <mxGeometry x="520" y="820" width="240" height="40" as="geometry" />
        </mxCell>
        <mxCell id="MKNZsfHyS8Gho2xqNHfB-34" value="&lt;div&gt;&lt;b&gt;Ausgabe des Semesters&lt;br&gt;&lt;/b&gt;&lt;/div&gt;&lt;div&gt;writeLine_Wrapper(&quot;C IT WS2023/2034&quot;, 0);&lt;br&gt;&lt;/div&gt;" style="rounded=0;whiteSpace=wrap;html=1;strokeWidth=2;" parent="1" vertex="1">
          <mxGeometry x="270" y="700" width="240" height="40" as="geometry" />
        </mxCell>
        <mxCell id="MKNZsfHyS8Gho2xqNHfB-58" value="" style="edgeStyle=orthogonalEdgeStyle;rounded=0;orthogonalLoop=1;jettySize=auto;html=1;" parent="1" source="MKNZsfHyS8Gho2xqNHfB-36" target="MKNZsfHyS8Gho2xqNHfB-57" edge="1">
          <mxGeometry relative="1" as="geometry" />
        </mxCell>
        <mxCell id="MKNZsfHyS8Gho2xqNHfB-36" value="" style="shape=waypoint;sketch=0;fillStyle=solid;size=6;pointerEvents=1;points=[];fillColor=none;resizable=0;rotatable=0;perimeter=centerPerimeter;snapToPoint=1;" parent="1" vertex="1">
          <mxGeometry x="630" y="640" width="20" height="20" as="geometry" />
        </mxCell>
        <mxCell id="MKNZsfHyS8Gho2xqNHfB-38" style="edgeStyle=orthogonalEdgeStyle;rounded=0;orthogonalLoop=1;jettySize=auto;html=1;entryX=0.583;entryY=0.8;entryDx=0;entryDy=0;entryPerimeter=0;" parent="1" source="MKNZsfHyS8Gho2xqNHfB-20" target="MKNZsfHyS8Gho2xqNHfB-36" edge="1">
          <mxGeometry relative="1" as="geometry">
            <Array as="points">
              <mxPoint x="390" y="650" />
            </Array>
          </mxGeometry>
        </mxCell>
        <mxCell id="MKNZsfHyS8Gho2xqNHfB-59" value="" style="edgeStyle=orthogonalEdgeStyle;rounded=0;orthogonalLoop=1;jettySize=auto;html=1;" parent="1" source="MKNZsfHyS8Gho2xqNHfB-57" target="MKNZsfHyS8Gho2xqNHfB-34" edge="1">
          <mxGeometry relative="1" as="geometry" />
        </mxCell>
        <mxCell id="MKNZsfHyS8Gho2xqNHfB-60" value="ja" style="edgeLabel;html=1;align=center;verticalAlign=middle;resizable=0;points=[];" parent="MKNZsfHyS8Gho2xqNHfB-59" vertex="1" connectable="0">
          <mxGeometry x="0.1333" y="4" relative="1" as="geometry">
            <mxPoint x="8" y="-14" as="offset" />
          </mxGeometry>
        </mxCell>
        <mxCell id="MKNZsfHyS8Gho2xqNHfB-64" style="edgeStyle=orthogonalEdgeStyle;rounded=0;orthogonalLoop=1;jettySize=auto;html=1;" parent="1" source="MKNZsfHyS8Gho2xqNHfB-57" target="MKNZsfHyS8Gho2xqNHfB-61" edge="1">
          <mxGeometry relative="1" as="geometry" />
        </mxCell>
        <mxCell id="MKNZsfHyS8Gho2xqNHfB-57" value="count == 10?" style="strokeWidth=2;html=1;shape=mxgraph.flowchart.decision;whiteSpace=wrap;" parent="1" vertex="1">
          <mxGeometry x="560" y="690" width="160" height="60" as="geometry" />
        </mxCell>
        <mxCell id="MKNZsfHyS8Gho2xqNHfB-65" value="" style="edgeStyle=orthogonalEdgeStyle;rounded=0;orthogonalLoop=1;jettySize=auto;html=1;" parent="1" source="MKNZsfHyS8Gho2xqNHfB-61" target="MKNZsfHyS8Gho2xqNHfB-31" edge="1">
          <mxGeometry relative="1" as="geometry" />
        </mxCell>
        <mxCell id="MKNZsfHyS8Gho2xqNHfB-61" value="" style="shape=waypoint;sketch=0;fillStyle=solid;size=6;pointerEvents=1;points=[];fillColor=none;resizable=0;rotatable=0;perimeter=centerPerimeter;snapToPoint=1;strokeWidth=1;" parent="1" vertex="1">
          <mxGeometry x="630" y="770" width="20" height="20" as="geometry" />
        </mxCell>
        <mxCell id="MKNZsfHyS8Gho2xqNHfB-63" style="edgeStyle=orthogonalEdgeStyle;rounded=0;orthogonalLoop=1;jettySize=auto;html=1;entryX=0.417;entryY=0.758;entryDx=0;entryDy=0;entryPerimeter=0;" parent="1" source="MKNZsfHyS8Gho2xqNHfB-34" target="MKNZsfHyS8Gho2xqNHfB-61" edge="1">
          <mxGeometry relative="1" as="geometry">
            <Array as="points">
              <mxPoint x="390" y="780" />
            </Array>
          </mxGeometry>
        </mxCell>
        <mxCell id="MKNZsfHyS8Gho2xqNHfB-67" value="" style="shape=waypoint;sketch=0;fillStyle=solid;size=6;pointerEvents=1;points=[];fillColor=none;resizable=0;rotatable=0;perimeter=centerPerimeter;snapToPoint=1;" parent="1" vertex="1">
          <mxGeometry x="170" y="380" width="20" height="20" as="geometry" />
        </mxCell>
        <mxCell id="MKNZsfHyS8Gho2xqNHfB-68" style="edgeStyle=orthogonalEdgeStyle;rounded=0;orthogonalLoop=1;jettySize=auto;html=1;entryX=0;entryY=0.5;entryDx=0;entryDy=0;entryPerimeter=0;" parent="1" source="MKNZsfHyS8Gho2xqNHfB-67" target="MKNZsfHyS8Gho2xqNHfB-4" edge="1">
          <mxGeometry relative="1" as="geometry">
            <Array as="points">
              <mxPoint x="180" y="300" />
            </Array>
          </mxGeometry>
        </mxCell>
        <mxCell id="MKNZsfHyS8Gho2xqNHfB-69" style="edgeStyle=orthogonalEdgeStyle;rounded=0;orthogonalLoop=1;jettySize=auto;html=1;entryX=0.708;entryY=0.675;entryDx=0;entryDy=0;entryPerimeter=0;" parent="1" source="MKNZsfHyS8Gho2xqNHfB-31" target="MKNZsfHyS8Gho2xqNHfB-67" edge="1">
          <mxGeometry relative="1" as="geometry" />
        </mxCell>
      </root>
    </mxGraphModel>
  </diagram>
</mxfile>
